<?xml version="1.0" encoding="UTF-8"?>
<svg id="Layer_1" xmlns="http://www.w3.org/2000/svg" version="1.1" viewBox="0 0 1000 600">
  <!-- Generator: Adobe Illustrator 29.3.1, SVG Export Plug-In . SVG Version: 2.1.0 Build 151)  -->
  <defs>
    <style>
      .st0 {
        fill: #fff;
      }

      .st1 {
        fill: #db4910;
      }
    </style>
  </defs>
  <g>
    <path class="st0" d="M239.78,283.45h-1.41c-1.01-4.33-4.23-9.16-9.66-9.16h-8.36v67.95h6.24v1.51h-21.14v-1.51h6.24v-67.85h-8.36c-5.43,0-8.66,4.73-9.67,9.06h-1.41l2.52-10.97h42.48l2.51,10.97Z"/>
    <path class="st0" d="M282.47,342.24v1.51h-14.9v-5.54c-3.83,4.13-8.86,7.05-14.8,7.05-10.77,0-18.42-5.34-18.42-15.1s12.18-19.53,33.22-20.34v-2.22c0-8.76-1.61-14.59-8.96-14.59s-14.09,5.94-18.52,12.38h-1.31l2.22-10.47c3.72-1.82,12.89-3.93,17.62-3.93,17.22,0,17.62,11.98,17.62,22.15v29.09h6.24ZM242.61,330.16c0,6.75,4.33,13.39,11.68,12.78,9.26-.5,12.69-11.57,13.29-20.33v-10.68c-17.22.81-24.96,9.67-24.96,18.22Z"/>
    <path class="st0" d="M382.74,328.85h2.42c-3.83,9.67-13.18,16.41-23.55,16.41-13.89,0-25.16-12.18-25.16-27.18s11.27-27.08,25.16-27.08,25.17,12.18,25.17,27.08h-41.58c0,14.19,6.64,25.16,17.11,25.16,8.56,0,16.91-5.63,20.43-14.4ZM378.12,316.07c-.61-13.09-6.55-23.05-16.51-23.05s-15.81,9.96-16.41,23.05h32.92Z"/>
    <path class="st0" d="M438.92,342.24v1.51h-14.9v-5.54c-3.83,4.13-8.86,7.05-14.8,7.05-10.77,0-18.42-5.34-18.42-15.1s12.18-19.53,33.22-20.34v-2.22c0-8.76-1.61-14.59-8.96-14.59s-14.09,5.94-18.52,12.38h-1.31l2.22-10.47c3.72-1.82,12.89-3.93,17.62-3.93,17.22,0,17.62,11.98,17.62,22.15v29.09h6.24ZM399.05,330.16c0,6.75,4.33,13.39,11.68,12.78,9.26-.5,12.69-11.57,13.29-20.33v-10.68c-17.22.81-24.96,9.67-24.96,18.22Z"/>
    <path class="st0" d="M437.62,292.51h21.64v1.51h-6.24l15.5,45,7.85-22.95-7.55-22.05h-6.24v-1.51h21.64v1.51h-6.24l15.5,45.1,15.5-45.1h-6.24v-1.51h14.69v1.51h-6.24l-16.61,48.22.5,1.51h-9.16l-8.46-24.46-7.85,22.85.5,1.61h-9.16l-17.12-49.73h-6.24v-1.51Z"/>
    <path class="st0" d="M563.46,342.24v1.51h-14.9v-5.54c-3.83,4.13-8.86,7.05-14.8,7.05-10.77,0-18.42-5.34-18.42-15.1s12.18-19.53,33.22-20.34v-2.22c0-8.76-1.61-14.59-8.96-14.59s-14.09,5.94-18.52,12.38h-1.31l2.22-10.47c3.72-1.82,12.89-3.93,17.62-3.93,17.22,0,17.62,11.98,17.62,22.15v29.09h6.24ZM523.59,330.16c0,6.75,4.33,13.39,11.68,12.78,9.26-.5,12.69-11.57,13.29-20.33v-10.68c-17.22.81-24.96,9.67-24.96,18.22Z"/>
    <path class="st0" d="M613.29,294.02h-6.24l-23.95,59.5c-2.82,6.95-8.76,10.07-16.61,10.67l-2.01-8.25h.6c2.02.6,3.83.81,5.54.81,6.95,0,10.87-4.63,13.29-10.77l1.51-3.93-19.43-48.02h-6.24v-1.51h21.74v1.51h-6.24l14.8,36.54,14.8-36.54h-6.24v-1.51h14.69v1.51Z"/>
  </g>
  <g>
    <path class="st1" d="M626.22,266.68h-27.73v-4.53h59.99v4.53h-27.73v88.85h-4.53v-88.85Z"/>
    <path class="st1" d="M673.41,262.15h51.5v4.53h-47.18v39.75h45.84v4.53h-45.84v40.03h47.18v4.53h-51.5v-93.38Z"/>
    <path class="st1" d="M769.75,262.15h5.45l32.54,93.38h-4.74l-9.12-25.61h-42.8l-9.27,25.61h-4.81l32.75-93.38ZM752.28,325.4h40.47l-20.16-57.37h-.21l-20.09,57.37Z"/>
  </g>
  <g>
    <path class="st0" d="M292.74,307.41c1.86-1.45,3.96-2.75,5.87-3.92l1.07-.66c.49-.3,1.07-.68,1.72-1.1v-29.25h-14.9v1.51h6.24v33.42Z"/>
    <path class="st0" d="M301.4,326.22c-.83.37-1.68.64-2.56.7l-.71.02c-2,0-3.87-.54-5.39-1.22v16.52h-6.24v1.51h21.14v-1.51h-6.24v-16.02Z"/>
    <path class="st0" d="M313.94,312.88c-.93,1.16-1.76,2.2-2.34,2.99l-.76,1.03c-.77,1.04-1.59,2.13-2.45,3.21l14.96,22.14h-5.54v1.51h22.65v-1.51h-6.94l-19.58-29.36Z"/>
  </g>
  <path class="st1" d="M384.38,245.01c-1.08.99-20.08,18.56-21.26,19.34-1.17.78-2.27-.86-1.56-1.71.72-.85,1.31-1.49,5.22-5.56,3.91-4.07,16.11-15.54,15.86-15.71-.25-.16-21.68,18.83-22.7,19.71-.92.8-1.31.11-1.45-.04l-.02-.02c-.14-.15-.8-.62.08-1.46.98-.94,21.84-20.55,21.7-20.81-.14-.26-12.7,10.82-17.09,14.36-4.4,3.53-5.09,4.07-6,4.7-.9.63-2.44-.61-1.56-1.7.88-1.1,20.08-18.46,21.16-19.45,1.08-.99,2.49-2.37-5.91,4.04-8.4,6.41-17.27,12.76-20.28,16.39-3.02,3.64-2.24,6.65-3.18,8.87-.94,2.23-.22,2.25-3.47,5.42-3.25,3.16-17.93,16.69-23.76,21.14-5.84,4.45-14.74,10.64-18.73,13.11-3.98,2.47-10.07,5.89-10.62,9.41-.48,3.17,1.02,6.06,1.41,6.49l.07.08c.4.44,3.14,2.18,6.34,1.99,3.56-.23,7.51-5.99,10.32-9.73,2.82-3.75,9.77-12.07,14.73-17.48,4.95-5.41,19.74-18.83,23.18-21.78,3.44-2.95,3.41-2.23,5.71-2.97,2.3-.73,5.23.31,9.12-2.38,3.89-2.67,11-10.94,18.14-18.73,7.14-7.8,5.63-6.52,4.55-5.53ZM297.57,320.25c-1.83,0-3.31-1.48-3.31-3.31s1.48-3.31,3.31-3.31,3.31,1.48,3.31,3.31-1.48,3.31-3.31,3.31Z"/>
</svg>